<svg width="31" height="31" viewBox="0 0 31 31" fill="none" xmlns="http://www.w3.org/2000/svg">
<path d="M29.9994 8.14721C29.913 8.02117 29.7983 7.9183 29.6651 7.84726C29.5319 7.77622 29.384 7.73908 29.2339 7.73899H9.23717L7.72349 2.37908C7.12989 0.268494 5.71936 0.0406494 5.14084 0.0406494H1.10484C0.587535 0.0406494 0.169189 0.4707 0.169189 1.00137C0.169189 1.53204 0.588006 1.96206 1.10481 1.96206H5.14034C5.26801 1.96206 5.65762 1.96206 5.92335 2.90488L11.1305 22.5551C11.2436 22.9697 11.6115 23.2561 12.0313 23.2561H24.7503C25.1451 23.2561 25.4975 23.0021 25.6308 22.6204L30.1139 9.02472C30.2171 8.73012 30.1742 8.40214 29.9994 8.14721H29.9994ZM24.0918 21.3352H12.7414L9.76307 9.66091H27.9036L24.0918 21.3352ZM22.2362 25.2032C20.935 25.2032 19.8806 26.2858 19.8806 27.6219C19.8806 28.958 20.935 30.0406 22.2362 30.0406C23.5374 30.0406 24.5917 28.958 24.5917 27.6219C24.5917 26.2858 23.5374 25.2032 22.2362 25.2032ZM13.7562 25.2032C12.455 25.2032 11.4006 26.2858 11.4006 27.6219C11.4006 28.958 12.455 30.0406 13.7562 30.0406C15.0574 30.0406 16.1117 28.958 16.1117 27.6219C16.1117 26.2858 15.0574 25.2032 13.7562 25.2032Z" fill="black"/>
</svg>
