<svg width="31" height="30" viewBox="0 0 31 30" fill="none" xmlns="http://www.w3.org/2000/svg">
<path fill-rule="evenodd" clip-rule="evenodd" d="M15.1533 0C14.3091 0 13.5319 0.209302 12.6821 0.56093C11.8602 0.901395 10.9058 1.40233 9.71837 2.02605L6.83279 3.54C5.37465 4.30465 4.20954 4.91721 3.30675 5.5186C2.37465 6.14233 1.65465 6.79814 1.1314 7.68698C0.609538 8.57302 0.37512 9.53302 0.262096 10.6758C0.153259 11.7851 0.153259 13.1484 0.153259 14.8647V15.1353C0.153259 16.8516 0.153259 18.2149 0.262096 19.3242C0.37512 20.4684 0.610934 21.427 1.1314 22.313C1.65465 23.2019 2.37326 23.8577 3.30814 24.4814C4.20814 25.0828 5.37465 25.6953 6.83279 26.46L9.71837 27.974C10.9058 28.5977 11.8602 29.0986 12.6821 29.4391C13.5333 29.7907 14.3091 30 15.1533 30C15.9974 30 16.7747 29.7907 17.6244 29.4391C18.4463 29.0986 19.4007 28.5977 20.5881 27.974L23.4737 26.4614C24.9319 25.6953 26.097 25.0828 26.9984 24.4814C27.9333 23.8577 28.6519 23.2019 29.1751 22.313C29.697 21.427 29.9314 20.467 30.0444 19.3242C30.1533 18.2149 30.1533 16.8516 30.1533 15.1367V14.8633C30.1533 13.1484 30.1533 11.7851 30.0444 10.6758C29.9314 9.53163 29.6956 8.57302 29.1751 7.68698C28.6519 6.79814 27.9333 6.14233 26.9984 5.5186C26.0984 4.91721 24.9319 4.30465 23.4737 3.54L20.5881 2.02605C19.4007 1.40233 18.4463 0.901395 17.6244 0.56093C16.7733 0.209302 15.9974 0 15.1533 0ZM10.6463 3.9014C11.8881 3.24977 12.7588 2.79488 13.4816 2.49628C14.1849 2.20465 14.6802 2.09302 15.1533 2.09302C15.6277 2.09302 16.1216 2.20465 16.8249 2.49628C17.5477 2.79488 18.417 3.24977 19.6588 3.9014L22.4495 5.36651C23.9705 6.16326 25.0379 6.72558 25.8374 7.2586C26.2309 7.52233 26.5393 7.76651 26.7905 8.01209L22.1426 10.3353L10.2821 4.09256L10.6463 3.9014ZM8.09977 5.23814L7.85698 5.36651C6.33605 6.16326 5.26861 6.72558 4.47047 7.2586C4.13016 7.47974 3.81112 7.73198 3.51745 8.01209L15.1533 13.8307L19.8374 11.4865L8.38721 5.4614C8.27983 5.4032 8.18273 5.32778 8.09977 5.23814ZM2.50861 9.84698C2.43884 10.1456 2.38442 10.4847 2.34535 10.8795C2.24768 11.8758 2.24628 13.1358 2.24628 14.9177V15.0809C2.24628 16.8642 2.24628 18.1242 2.34535 19.1191C2.44163 20.0916 2.62442 20.7209 2.93558 21.2512C3.24535 21.7772 3.69326 22.2223 4.47047 22.7414C5.26861 23.2744 6.33605 23.8367 7.85698 24.6335L10.6477 26.0986C11.8895 26.7502 12.7588 27.2051 13.4816 27.5037C13.7086 27.5977 13.917 27.6744 14.1067 27.734V15.646L2.50861 9.84698ZM16.1998 27.7326C16.3895 27.674 16.5979 27.5977 16.8249 27.5037C17.5477 27.2051 18.417 26.7502 19.6588 26.0986L22.4495 24.6335C23.9705 23.8353 25.0379 23.2744 25.8374 22.7414C26.6133 22.2223 27.0612 21.7772 27.3723 21.2512C27.6835 20.7209 27.8649 20.093 27.9612 19.1191C28.0588 18.1242 28.0602 16.8642 28.0602 15.0823V14.9191C28.0602 13.1358 28.0602 11.8758 27.9612 10.8809C27.9283 10.5337 27.8738 10.1888 27.7979 9.84837L23.1765 12.1577V16.3953C23.1765 16.6729 23.0663 16.9391 22.87 17.1353C22.6737 17.3316 22.4076 17.4419 22.13 17.4419C21.8525 17.4419 21.5863 17.3316 21.39 17.1353C21.1937 16.9391 21.0835 16.6729 21.0835 16.3953V13.2056L16.1998 15.6474V27.7326Z" fill="black"/>
</svg>
